solid 
 facet normal  0.000000e+00  1.000000e+00  0.000000e+00
   outer loop
     vertex  2.211538e+03  0.000000e+00  1.600000e+03
     vertex  8.846154e+01  0.000000e+00  1.520000e+03
     vertex  8.846154e+01  0.000000e+00  1.600000e+03
   endloop
 endfacet
 facet normal  0.000000e+00  1.000000e+00  0.000000e+00
   outer loop
     vertex  2.211538e+03  0.000000e+00  1.600000e+03
     vertex  2.211538e+03  0.000000e+00  1.520000e+03
     vertex  8.846154e+01  0.000000e+00  1.520000e+03
   endloop
 endfacet
 facet normal  0.000000e+00  0.000000e+00 -1.000000e+00
   outer loop
     vertex  8.846154e+01  3.000000e+02  1.600000e+03
     vertex  2.211538e+03  3.000000e+02  1.600000e+03
     vertex  2.211538e+03  0.000000e+00  1.600000e+03
   endloop
 endfacet
 facet normal  0.000000e+00  0.000000e+00 -1.000000e+00
   outer loop
     vertex  8.846154e+01  3.000000e+02  1.600000e+03
     vertex  2.211538e+03  0.000000e+00  1.600000e+03
     vertex  8.846154e+01  0.000000e+00  1.600000e+03
   endloop
 endfacet
 facet normal  0.000000e+00 -1.000000e+00  0.000000e+00
   outer loop
     vertex  2.211538e+03  3.000000e+02  1.520000e+03
     vertex  8.846154e+01  3.000000e+02  1.600000e+03
     vertex  8.846154e+01  3.000000e+02  1.520000e+03
   endloop
 endfacet
 facet normal  0.000000e+00 -1.000000e+00  0.000000e+00
   outer loop
     vertex  2.211538e+03  3.000000e+02  1.520000e+03
     vertex  2.211538e+03  3.000000e+02  1.600000e+03
     vertex  8.846154e+01  3.000000e+02  1.600000e+03
   endloop
 endfacet
 facet normal  0.000000e+00  0.000000e+00  1.000000e+00
   outer loop
     vertex  2.211538e+03  3.000000e+02  1.520000e+03
     vertex  8.846154e+01  3.000000e+02  1.520000e+03
     vertex  8.846154e+01  0.000000e+00  1.520000e+03
   endloop
 endfacet
 facet normal  0.000000e+00  0.000000e+00  1.000000e+00
   outer loop
     vertex  2.211538e+03  3.000000e+02  1.520000e+03
     vertex  8.846154e+01  0.000000e+00  1.520000e+03
     vertex  2.211538e+03  0.000000e+00  1.520000e+03
   endloop
 endfacet
 facet normal -1.000000e+00  0.000000e+00  0.000000e+00
   outer loop
     vertex  2.211538e+03  0.000000e+00  1.600000e+03
     vertex  2.211538e+03  3.000000e+02  1.520000e+03
     vertex  2.211538e+03  0.000000e+00  1.520000e+03
   endloop
 endfacet
 facet normal -1.000000e+00  0.000000e+00  0.000000e+00
   outer loop
     vertex  2.211538e+03  0.000000e+00  1.600000e+03
     vertex  2.211538e+03  3.000000e+02  1.600000e+03
     vertex  2.211538e+03  3.000000e+02  1.520000e+03
   endloop
 endfacet
 facet normal  1.000000e+00  0.000000e+00  0.000000e+00
   outer loop
     vertex  8.846154e+01  0.000000e+00  1.520000e+03
     vertex  8.846154e+01  3.000000e+02  1.600000e+03
     vertex  8.846154e+01  0.000000e+00  1.600000e+03
   endloop
 endfacet
 facet normal  1.000000e+00  0.000000e+00  0.000000e+00
   outer loop
     vertex  8.846154e+01  0.000000e+00  1.520000e+03
     vertex  8.846154e+01  3.000000e+02  1.520000e+03
     vertex  8.846154e+01  3.000000e+02  1.600000e+03
   endloop
 endfacet
endsolid
