solid 
 facet normal  1.000000e+00  0.000000e+00  0.000000e+00
   outer loop
     vertex  1.769231e+02  9.000000e+01  1.440000e+03
     vertex  1.769231e+02  9.000000e+01  1.600000e+02
     vertex  1.769231e+02  1.200000e+02  1.600000e+02
   endloop
 endfacet
 facet normal  1.000000e+00 -0.000000e+00  0.000000e+00
   outer loop
     vertex  1.769231e+02  9.000000e+01  1.440000e+03
     vertex  1.769231e+02  1.200000e+02  1.600000e+02
     vertex  1.769231e+02  1.200000e+02  1.440000e+03
   endloop
 endfacet
 facet normal  0.000000e+00 -1.000000e+00  0.000000e+00
   outer loop
     vertex  1.105769e+03  1.200000e+02  1.600000e+02
     vertex  1.105769e+03  1.200000e+02  1.440000e+03
     vertex  1.769231e+02  1.200000e+02  1.440000e+03
   endloop
 endfacet
 facet normal  0.000000e+00 -1.000000e+00  0.000000e+00
   outer loop
     vertex  1.105769e+03  1.200000e+02  1.600000e+02
     vertex  1.769231e+02  1.200000e+02  1.440000e+03
     vertex  1.769231e+02  1.200000e+02  1.600000e+02
   endloop
 endfacet
 facet normal -1.000000e+00  0.000000e+00  0.000000e+00
   outer loop
     vertex  1.105769e+03  9.000000e+01  1.600000e+02
     vertex  1.105769e+03  9.000000e+01  1.440000e+03
     vertex  1.105769e+03  1.200000e+02  1.440000e+03
   endloop
 endfacet
 facet normal -1.000000e+00  0.000000e+00  0.000000e+00
   outer loop
     vertex  1.105769e+03  9.000000e+01  1.600000e+02
     vertex  1.105769e+03  1.200000e+02  1.440000e+03
     vertex  1.105769e+03  1.200000e+02  1.600000e+02
   endloop
 endfacet
 facet normal  0.000000e+00  1.000000e+00  0.000000e+00
   outer loop
     vertex  1.105769e+03  9.000000e+01  1.440000e+03
     vertex  1.105769e+03  9.000000e+01  1.600000e+02
     vertex  1.769231e+02  9.000000e+01  1.600000e+02
   endloop
 endfacet
 facet normal  0.000000e+00  1.000000e+00  0.000000e+00
   outer loop
     vertex  1.105769e+03  9.000000e+01  1.440000e+03
     vertex  1.769231e+02  9.000000e+01  1.600000e+02
     vertex  1.769231e+02  9.000000e+01  1.440000e+03
   endloop
 endfacet
 facet normal  0.000000e+00 -0.000000e+00 -1.000000e+00
   outer loop
     vertex  1.105769e+03  1.200000e+02  1.440000e+03
     vertex  1.105769e+03  9.000000e+01  1.440000e+03
     vertex  1.769231e+02  9.000000e+01  1.440000e+03
   endloop
 endfacet
 facet normal -0.000000e+00  0.000000e+00 -1.000000e+00
   outer loop
     vertex  1.105769e+03  1.200000e+02  1.440000e+03
     vertex  1.769231e+02  9.000000e+01  1.440000e+03
     vertex  1.769231e+02  1.200000e+02  1.440000e+03
   endloop
 endfacet
 facet normal  0.000000e+00  0.000000e+00  1.000000e+00
   outer loop
     vertex  1.769231e+02  9.000000e+01  1.600000e+02
     vertex  1.105769e+03  9.000000e+01  1.600000e+02
     vertex  1.105769e+03  1.200000e+02  1.600000e+02
   endloop
 endfacet
 facet normal -0.000000e+00  0.000000e+00  1.000000e+00
   outer loop
     vertex  1.769231e+02  1.200000e+02  1.600000e+02
     vertex  1.769231e+02  9.000000e+01  1.600000e+02
     vertex  1.105769e+03  1.200000e+02  1.600000e+02
   endloop
 endfacet
endsolid
