solid 
 facet normal  1.000000e+00  0.000000e+00  0.000000e+00
   outer loop
     vertex  1.194231e+03  2.100000e+02  1.440000e+03
     vertex  1.194231e+03  2.100000e+02  1.600000e+02
     vertex  1.194231e+03  2.400000e+02  1.600000e+02
   endloop
 endfacet
 facet normal  1.000000e+00 -0.000000e+00  0.000000e+00
   outer loop
     vertex  1.194231e+03  2.100000e+02  1.440000e+03
     vertex  1.194231e+03  2.400000e+02  1.600000e+02
     vertex  1.194231e+03  2.400000e+02  1.440000e+03
   endloop
 endfacet
 facet normal  0.000000e+00 -1.000000e+00  0.000000e+00
   outer loop
     vertex  2.123077e+03  2.400000e+02  1.600000e+02
     vertex  2.123077e+03  2.400000e+02  1.440000e+03
     vertex  1.194231e+03  2.400000e+02  1.440000e+03
   endloop
 endfacet
 facet normal  0.000000e+00 -1.000000e+00  0.000000e+00
   outer loop
     vertex  2.123077e+03  2.400000e+02  1.600000e+02
     vertex  1.194231e+03  2.400000e+02  1.440000e+03
     vertex  1.194231e+03  2.400000e+02  1.600000e+02
   endloop
 endfacet
 facet normal -1.000000e+00  0.000000e+00  0.000000e+00
   outer loop
     vertex  2.123077e+03  2.100000e+02  1.600000e+02
     vertex  2.123077e+03  2.100000e+02  1.440000e+03
     vertex  2.123077e+03  2.400000e+02  1.440000e+03
   endloop
 endfacet
 facet normal -1.000000e+00  0.000000e+00  0.000000e+00
   outer loop
     vertex  2.123077e+03  2.100000e+02  1.600000e+02
     vertex  2.123077e+03  2.400000e+02  1.440000e+03
     vertex  2.123077e+03  2.400000e+02  1.600000e+02
   endloop
 endfacet
 facet normal  0.000000e+00  1.000000e+00  0.000000e+00
   outer loop
     vertex  2.123077e+03  2.100000e+02  1.440000e+03
     vertex  2.123077e+03  2.100000e+02  1.600000e+02
     vertex  1.194231e+03  2.100000e+02  1.600000e+02
   endloop
 endfacet
 facet normal  0.000000e+00  1.000000e+00  0.000000e+00
   outer loop
     vertex  2.123077e+03  2.100000e+02  1.440000e+03
     vertex  1.194231e+03  2.100000e+02  1.600000e+02
     vertex  1.194231e+03  2.100000e+02  1.440000e+03
   endloop
 endfacet
 facet normal  0.000000e+00 -0.000000e+00 -1.000000e+00
   outer loop
     vertex  2.123077e+03  2.400000e+02  1.440000e+03
     vertex  2.123077e+03  2.100000e+02  1.440000e+03
     vertex  1.194231e+03  2.100000e+02  1.440000e+03
   endloop
 endfacet
 facet normal -0.000000e+00  0.000000e+00 -1.000000e+00
   outer loop
     vertex  2.123077e+03  2.400000e+02  1.440000e+03
     vertex  1.194231e+03  2.100000e+02  1.440000e+03
     vertex  1.194231e+03  2.400000e+02  1.440000e+03
   endloop
 endfacet
 facet normal  0.000000e+00  0.000000e+00  1.000000e+00
   outer loop
     vertex  1.194231e+03  2.400000e+02  1.600000e+02
     vertex  1.194231e+03  2.100000e+02  1.600000e+02
     vertex  2.123077e+03  2.100000e+02  1.600000e+02
   endloop
 endfacet
 facet normal -0.000000e+00  0.000000e+00  1.000000e+00
   outer loop
     vertex  1.194231e+03  2.400000e+02  1.600000e+02
     vertex  2.123077e+03  2.100000e+02  1.600000e+02
     vertex  2.123077e+03  2.400000e+02  1.600000e+02
   endloop
 endfacet
endsolid
