solid 
 facet normal  0.000000e+00  1.000000e+00  0.000000e+00
   outer loop
     vertex  8.846154e+01  1.500000e+02  1.520000e+03
     vertex  1.769231e+02  1.500000e+02  8.000000e+01
     vertex  8.846154e+01  1.500000e+02  8.000000e+01
   endloop
 endfacet
 facet normal  0.000000e+00  1.000000e+00  0.000000e+00
   outer loop
     vertex  1.769231e+02  1.500000e+02  1.520000e+03
     vertex  1.769231e+02  1.500000e+02  8.000000e+01
     vertex  8.846154e+01  1.500000e+02  1.520000e+03
   endloop
 endfacet
 facet normal  1.000000e+00  0.000000e+00  0.000000e+00
   outer loop
     vertex  1.769231e+02  1.500000e+02  1.520000e+03
     vertex  1.769231e+02  3.000000e+01  8.000000e+01
     vertex  1.769231e+02  1.500000e+02  8.000000e+01
   endloop
 endfacet
 facet normal  1.000000e+00 -0.000000e+00  0.000000e+00
   outer loop
     vertex  1.769231e+02  3.000000e+01  1.520000e+03
     vertex  1.769231e+02  3.000000e+01  8.000000e+01
     vertex  1.769231e+02  1.500000e+02  1.520000e+03
   endloop
 endfacet
 facet normal  0.000000e+00 -1.000000e+00  0.000000e+00
   outer loop
     vertex  8.846154e+01  3.000000e+01  8.000000e+01
     vertex  1.769231e+02  3.000000e+01  1.520000e+03
     vertex  8.846154e+01  3.000000e+01  1.520000e+03
   endloop
 endfacet
 facet normal  0.000000e+00 -1.000000e+00  0.000000e+00
   outer loop
     vertex  1.769231e+02  3.000000e+01  8.000000e+01
     vertex  1.769231e+02  3.000000e+01  1.520000e+03
     vertex  8.846154e+01  3.000000e+01  8.000000e+01
   endloop
 endfacet
 facet normal -1.000000e+00  0.000000e+00  0.000000e+00
   outer loop
     vertex  8.846154e+01  1.500000e+02  8.000000e+01
     vertex  8.846154e+01  3.000000e+01  1.520000e+03
     vertex  8.846154e+01  1.500000e+02  1.520000e+03
   endloop
 endfacet
 facet normal -1.000000e+00  0.000000e+00  0.000000e+00
   outer loop
     vertex  8.846154e+01  3.000000e+01  8.000000e+01
     vertex  8.846154e+01  3.000000e+01  1.520000e+03
     vertex  8.846154e+01  1.500000e+02  8.000000e+01
   endloop
 endfacet
 facet normal  0.000000e+00  0.000000e+00  1.000000e+00
   outer loop
     vertex  1.769231e+02  1.500000e+02  1.520000e+03
     vertex  8.846154e+01  1.500000e+02  1.520000e+03
     vertex  8.846154e+01  3.000000e+01  1.520000e+03
   endloop
 endfacet
 facet normal  0.000000e+00  0.000000e+00  1.000000e+00
   outer loop
     vertex  1.769231e+02  1.500000e+02  1.520000e+03
     vertex  8.846154e+01  3.000000e+01  1.520000e+03
     vertex  1.769231e+02  3.000000e+01  1.520000e+03
   endloop
 endfacet
 facet normal -0.000000e+00  0.000000e+00 -1.000000e+00
   outer loop
     vertex  1.769231e+02  1.500000e+02  8.000000e+01
     vertex  8.846154e+01  3.000000e+01  8.000000e+01
     vertex  8.846154e+01  1.500000e+02  8.000000e+01
   endloop
 endfacet
 facet normal  0.000000e+00 -0.000000e+00 -1.000000e+00
   outer loop
     vertex  1.769231e+02  1.500000e+02  8.000000e+01
     vertex  1.769231e+02  3.000000e+01  8.000000e+01
     vertex  8.846154e+01  3.000000e+01  8.000000e+01
   endloop
 endfacet
endsolid
