solid 
 facet normal  0.000000e+00  1.000000e+00  0.000000e+00
   outer loop
     vertex  1.105769e+03  3.000000e+01  1.520000e+03
     vertex  1.769231e+02  3.000000e+01  1.440000e+03
     vertex  1.769231e+02  3.000000e+01  1.520000e+03
   endloop
 endfacet
 facet normal  0.000000e+00  1.000000e+00  0.000000e+00
   outer loop
     vertex  1.105769e+03  3.000000e+01  1.520000e+03
     vertex  1.105769e+03  3.000000e+01  1.440000e+03
     vertex  1.769231e+02  3.000000e+01  1.440000e+03
   endloop
 endfacet
 facet normal  0.000000e+00  0.000000e+00 -1.000000e+00
   outer loop
     vertex  1.769231e+02  3.000000e+01  1.520000e+03
     vertex  1.105769e+03  1.500000e+02  1.520000e+03
     vertex  1.105769e+03  3.000000e+01  1.520000e+03
   endloop
 endfacet
 facet normal  0.000000e+00  0.000000e+00 -1.000000e+00
   outer loop
     vertex  1.769231e+02  1.500000e+02  1.520000e+03
     vertex  1.105769e+03  1.500000e+02  1.520000e+03
     vertex  1.769231e+02  3.000000e+01  1.520000e+03
   endloop
 endfacet
 facet normal  0.000000e+00 -1.000000e+00  0.000000e+00
   outer loop
     vertex  1.105769e+03  1.500000e+02  1.440000e+03
     vertex  1.769231e+02  1.500000e+02  1.520000e+03
     vertex  1.769231e+02  1.500000e+02  1.440000e+03
   endloop
 endfacet
 facet normal  0.000000e+00 -1.000000e+00  0.000000e+00
   outer loop
     vertex  1.105769e+03  1.500000e+02  1.440000e+03
     vertex  1.105769e+03  1.500000e+02  1.520000e+03
     vertex  1.769231e+02  1.500000e+02  1.520000e+03
   endloop
 endfacet
 facet normal  0.000000e+00  0.000000e+00  1.000000e+00
   outer loop
     vertex  1.105769e+03  1.500000e+02  1.440000e+03
     vertex  1.769231e+02  1.500000e+02  1.440000e+03
     vertex  1.769231e+02  3.000000e+01  1.440000e+03
   endloop
 endfacet
 facet normal  0.000000e+00  0.000000e+00  1.000000e+00
   outer loop
     vertex  1.105769e+03  1.500000e+02  1.440000e+03
     vertex  1.769231e+02  3.000000e+01  1.440000e+03
     vertex  1.105769e+03  3.000000e+01  1.440000e+03
   endloop
 endfacet
 facet normal -1.000000e+00  0.000000e+00  0.000000e+00
   outer loop
     vertex  1.105769e+03  3.000000e+01  1.520000e+03
     vertex  1.105769e+03  1.500000e+02  1.440000e+03
     vertex  1.105769e+03  3.000000e+01  1.440000e+03
   endloop
 endfacet
 facet normal -1.000000e+00  0.000000e+00  0.000000e+00
   outer loop
     vertex  1.105769e+03  3.000000e+01  1.520000e+03
     vertex  1.105769e+03  1.500000e+02  1.520000e+03
     vertex  1.105769e+03  1.500000e+02  1.440000e+03
   endloop
 endfacet
 facet normal  1.000000e+00  0.000000e+00  0.000000e+00
   outer loop
     vertex  1.769231e+02  3.000000e+01  1.440000e+03
     vertex  1.769231e+02  1.500000e+02  1.520000e+03
     vertex  1.769231e+02  3.000000e+01  1.520000e+03
   endloop
 endfacet
 facet normal  1.000000e+00  0.000000e+00  0.000000e+00
   outer loop
     vertex  1.769231e+02  3.000000e+01  1.440000e+03
     vertex  1.769231e+02  1.500000e+02  1.440000e+03
     vertex  1.769231e+02  1.500000e+02  1.520000e+03
   endloop
 endfacet
endsolid
