solid 
 facet normal  0.000000e+00  0.000000e+00  1.000000e+00
   outer loop
     vertex  1.105769e+03  1.500000e+02  1.600000e+02
     vertex  1.769231e+02  1.500000e+02  1.600000e+02
     vertex  1.769231e+02  3.000000e+01  1.600000e+02
   endloop
 endfacet
 facet normal  0.000000e+00  0.000000e+00  1.000000e+00
   outer loop
     vertex  1.105769e+03  1.500000e+02  1.600000e+02
     vertex  1.769231e+02  3.000000e+01  1.600000e+02
     vertex  1.105769e+03  3.000000e+01  1.600000e+02
   endloop
 endfacet
 facet normal  0.000000e+00  1.000000e+00  0.000000e+00
   outer loop
     vertex  1.105769e+03  1.500000e+02  1.600000e+02
     vertex  1.769231e+02  1.500000e+02  8.000000e+01
     vertex  1.769231e+02  1.500000e+02  1.600000e+02
   endloop
 endfacet
 facet normal  0.000000e+00  1.000000e+00  0.000000e+00
   outer loop
     vertex  1.105769e+03  1.500000e+02  1.600000e+02
     vertex  1.105769e+03  1.500000e+02  8.000000e+01
     vertex  1.769231e+02  1.500000e+02  8.000000e+01
   endloop
 endfacet
 facet normal  0.000000e+00  0.000000e+00 -1.000000e+00
   outer loop
     vertex  1.769231e+02  3.000000e+01  8.000000e+01
     vertex  1.105769e+03  1.500000e+02  8.000000e+01
     vertex  1.105769e+03  3.000000e+01  8.000000e+01
   endloop
 endfacet
 facet normal  0.000000e+00  0.000000e+00 -1.000000e+00
   outer loop
     vertex  1.769231e+02  1.500000e+02  8.000000e+01
     vertex  1.105769e+03  1.500000e+02  8.000000e+01
     vertex  1.769231e+02  3.000000e+01  8.000000e+01
   endloop
 endfacet
 facet normal  0.000000e+00 -1.000000e+00  0.000000e+00
   outer loop
     vertex  1.105769e+03  3.000000e+01  8.000000e+01
     vertex  1.769231e+02  3.000000e+01  1.600000e+02
     vertex  1.769231e+02  3.000000e+01  8.000000e+01
   endloop
 endfacet
 facet normal  0.000000e+00 -1.000000e+00  0.000000e+00
   outer loop
     vertex  1.105769e+03  3.000000e+01  8.000000e+01
     vertex  1.105769e+03  3.000000e+01  1.600000e+02
     vertex  1.769231e+02  3.000000e+01  1.600000e+02
   endloop
 endfacet
 facet normal  1.000000e+00  0.000000e+00  0.000000e+00
   outer loop
     vertex  1.105769e+03  3.000000e+01  1.600000e+02
     vertex  1.105769e+03  3.000000e+01  8.000000e+01
     vertex  1.105769e+03  1.500000e+02  8.000000e+01
   endloop
 endfacet
 facet normal  1.000000e+00 -0.000000e+00  0.000000e+00
   outer loop
     vertex  1.105769e+03  3.000000e+01  1.600000e+02
     vertex  1.105769e+03  1.500000e+02  8.000000e+01
     vertex  1.105769e+03  1.500000e+02  1.600000e+02
   endloop
 endfacet
 facet normal -1.000000e+00  0.000000e+00  0.000000e+00
   outer loop
     vertex  1.769231e+02  3.000000e+01  1.600000e+02
     vertex  1.769231e+02  1.500000e+02  8.000000e+01
     vertex  1.769231e+02  3.000000e+01  8.000000e+01
   endloop
 endfacet
 facet normal -1.000000e+00  0.000000e+00  0.000000e+00
   outer loop
     vertex  1.769231e+02  3.000000e+01  1.600000e+02
     vertex  1.769231e+02  1.500000e+02  1.600000e+02
     vertex  1.769231e+02  1.500000e+02  8.000000e+01
   endloop
 endfacet
endsolid
